<svg role="img" viewBox="0 0 24 24" xmlns="http://www.w3.org/2000/svg">
  <title>LinkedIn</title>
  <path fill="#0A66C2" d="M20.447 20.452h-3.554v-5.569c0-1.328-.027-3.037-1.852-3.037-1.853 0-2.136 1.447-2.136 2.942v5.664H9.351V9h3.414v1.561h.049c.476-.9 1.637-1.852 3.368-1.852 3.602 0 4.267 2.371 4.267 5.455v6.288zM5.337 7.433a2.063 2.063 0 1 1 0-4.126 2.063 2.063 0 0 1 0 4.126zM7.119 20.452H3.554V9h3.565v11.452zM22.225 0H1.771C.792 0 0 .774 0 1.729v20.542C0 23.227.792 24 1.771 24h20.451C23.2 24 24 23.227 24 22.271V1.729C24 .774 23.2 0 22.222 0h.003z"/>
</svg>
